<svg width="1600" height="480" viewBox="0 0 1600 480" fill="none" xmlns="http://www.w3.org/2000/svg">
  <rect width="1600" height="480" rx="48" fill="#101922"/>
  <rect x="64" y="64" width="352" height="352" rx="104" fill="#0F4C5C"/>
  <path d="M151 240C151 184.219 196.219 139 252 139C307.781 139 353 184.219 353 240C353 295.781 307.781 341 252 341C196.219 341 151 295.781 151 240Z" stroke="#F8FAFC" stroke-width="32"/>
  <path d="M381 142V338" stroke="#F8FAFC" stroke-width="32" stroke-linecap="round"/>
  <path d="M121 366H359" stroke="#C48A3A" stroke-width="34" stroke-linecap="round"/>
  <path d="M500 194.34C500 147.664 534.248 112 577.42 112C620.592 112 654.84 147.664 654.84 194.34V285.66C654.84 332.336 620.592 368 577.42 368C534.248 368 500 332.336 500 285.66V194.34ZM563.5 198.64V281.36C563.5 297.765 569.352 306 577.42 306C585.488 306 591.34 297.765 591.34 281.36V198.64C591.34 182.235 585.488 174 577.42 174C569.352 174 563.5 182.235 563.5 198.64Z" fill="#F8FAFC"/>
  <path d="M701.349 112H765.569V368H701.349V112Z" fill="#F8FAFC"/>
  <path d="M859.633 112H937.633L1003.75 368H939.389L931.111 327.1H866.155L857.877 368H793.508L859.633 112ZM899.091 171.12L877.305 275.22H919.815L899.091 171.12Z" fill="#F8FAFC"/>
  <path d="M1044.88 112H1105.02L1184.18 244.3V112H1246.96V368H1189.03L1107.66 232.8V368H1044.88V112Z" fill="#F8FAFC"/>
  <path d="M1291.03 112H1450.83V172.84H1354.53V209.95H1435.53V268.28H1354.53V307.16H1454V368H1291.03V112Z" fill="#F8FAFC"/>
</svg>
